<svg id="svg" version="1.1" xmlns="http://www.w3.org/2000/svg" xmlns:xlink="http://www.w3.org/1999/xlink" width="400" height="243.2234432234432" viewBox="0, 0, 400,243.2234432234432"><g id="svgg"><path id="path0" d="M104.191 12.666 C 95.282 12.818,87.809 13.126,87.586 13.349 C 87.079 13.857,86.752 93.364,87.202 106.838 L 87.531 116.728 89.263 116.728 C 90.909 116.728,90.954 116.684,90.186 115.835 C 89.448 115.020,89.016 111.844,89.643 111.844 C 89.789 111.844,91.361 112.943,93.135 114.286 L 96.361 116.728 102.425 116.728 C 108.164 116.728,110.379 116.315,110.379 115.245 C 110.379 114.617,109.061 114.640,108.746 115.275 C 108.610 115.550,108.561 115.495,108.637 115.153 C 108.717 114.793,109.365 114.575,110.169 114.636 C 110.935 114.694,111.732 114.475,111.939 114.148 C 112.204 113.731,112.319 113.798,112.325 114.372 C 112.329 114.822,111.947 115.282,111.477 115.394 C 110.399 115.650,112.756 116.719,115.174 117.070 C 118.765 117.591,118.943 117.341,118.878 111.864 C 118.839 108.574,118.998 106.955,119.361 106.945 C 119.659 106.937,119.506 106.699,119.021 106.417 C 118.341 106.022,118.266 105.751,118.692 105.237 C 119.044 104.813,119.139 103.570,118.953 101.822 C 118.673 99.199,118.709 99.082,119.731 99.232 C 121.007 99.420,121.567 100.611,120.379 100.611 C 119.778 100.611,119.654 100.843,119.923 101.465 C 120.508 102.820,120.597 107.937,120.036 107.937 C 119.738 107.937,119.771 108.217,120.121 108.638 C 120.536 109.138,120.558 109.610,120.198 110.283 C 119.920 110.802,119.779 111.314,119.886 111.420 C 119.992 111.526,120.175 112.819,120.293 114.293 L 120.507 116.972 128.099 117.216 L 135.691 117.460 137.254 119.414 C 138.114 120.488,140.933 124.529,143.518 128.393 C 146.104 132.256,148.661 135.700,149.201 136.045 C 151.005 137.196,216.949 137.255,218.219 136.106 C 218.760 135.617,221.280 132.101,223.820 128.292 C 226.359 124.484,229.346 120.433,230.457 119.292 L 232.478 117.216 249.537 117.216 C 275.050 117.216,283.685 115.250,294.615 106.952 C 324.365 84.366,323.075 41.448,292.016 20.550 C 280.846 13.035,280.411 12.983,227.595 12.890 C 203.553 12.848,169.597 12.718,152.137 12.601 C 134.676 12.484,113.101 12.513,104.191 12.666 M271.429 57.426 C 267.198 61.583,263.736 65.223,263.736 65.515 C 263.736 65.807,267.143 69.618,271.306 73.985 C 279.836 82.930,279.467 82.264,277.141 84.519 L 275.405 86.201 272.371 83.027 C 270.702 81.282,267.078 77.448,264.317 74.508 L 259.298 69.162 250.773 77.676 L 242.249 86.190 240.277 84.219 L 238.306 82.247 246.897 73.780 L 255.488 65.312 254.118 63.806 C 253.364 62.978,250.468 59.888,247.683 56.939 L 242.618 51.579 244.379 49.965 C 246.747 47.795,246.287 47.544,253.029 54.701 C 256.318 58.193,259.251 61.050,259.547 61.050 C 259.843 61.050,263.486 57.644,267.643 53.480 L 275.201 45.911 277.161 47.889 L 279.121 49.868 271.429 57.426 M92.308 65.201 C 92.308 66.829,92.498 67.399,93.040 67.399 C 93.552 67.399,93.773 66.884,93.773 65.690 C 93.773 63.956,94.261 63.636,95.931 64.277 C 96.452 64.477,96.703 65.191,96.703 66.475 C 96.703 67.839,96.910 68.376,97.436 68.376 C 97.967 68.376,98.168 67.830,98.168 66.390 C 98.168 64.512,98.241 64.412,99.512 64.559 C 100.829 64.710,102.047 72.287,100.753 72.282 C 100.260 72.280,91.935 70.882,90.476 70.556 C 89.456 70.329,89.377 70.048,89.377 66.657 L 89.377 63.004 90.842 63.004 C 92.253 63.004,92.308 63.085,92.308 65.201 M97.726 73.528 C 100.078 74.744,101.095 76.910,101.097 80.708 C 101.099 84.574,101.522 84.424,94.261 83.125 L 89.621 82.295 89.477 78.984 C 89.242 73.625,93.047 71.109,97.726 73.528 M93.122 76.516 C 92.559 77.078,92.768 79.143,93.407 79.342 C 96.580 80.334,97.680 80.162,97.680 78.672 C 97.680 76.725,94.443 75.195,93.122 76.516 M101.099 86.639 C 101.099 87.661,100.818 88.404,100.366 88.577 C 99.947 88.738,99.634 89.467,99.634 90.279 C 99.634 91.060,99.963 91.973,100.366 92.308 C 101.023 92.853,101.448 96.215,100.860 96.215 C 100.729 96.215,98.082 94.951,94.978 93.407 L 89.334 90.598 89.478 88.645 L 89.621 86.691 94.750 85.892 C 97.570 85.453,100.153 85.068,100.488 85.037 C 100.868 85.003,101.099 85.609,101.099 86.639 M113.025 86.255 C 113.450 86.418,113.794 86.912,113.790 87.354 C 113.783 88.042,113.717 88.053,113.325 87.433 C 112.984 86.893,112.784 87.233,112.538 88.776 C 112.243 90.621,112.070 90.835,110.927 90.776 C 109.776 90.716,109.758 90.688,110.745 90.498 C 112.269 90.204,112.117 89.568,110.379 88.962 C 108.402 88.273,108.527 87.911,110.623 88.251 C 112.433 88.545,112.954 87.753,111.746 86.545 C 111.090 85.889,111.707 85.749,113.025 86.255 M94.514 89.363 C 94.353 89.624,94.790 89.980,95.485 90.154 C 96.879 90.504,97.463 90.211,96.968 89.410 C 96.565 88.759,94.907 88.727,94.514 89.363 M109.402 90.795 C 109.402 91.037,110.061 91.465,110.867 91.746 C 111.673 92.027,112.332 92.406,112.332 92.588 C 112.332 92.769,111.673 92.786,110.867 92.625 C 110.020 92.456,109.402 92.538,109.402 92.821 C 109.402 93.089,110.061 93.441,110.867 93.602 C 112.491 93.927,113.147 96.703,111.600 96.703 C 110.607 96.703,110.674 97.510,111.722 98.172 C 112.404 98.604,112.215 98.655,110.790 98.427 C 109.573 98.232,108.924 98.340,108.753 98.765 C 108.615 99.109,108.485 98.895,108.463 98.291 C 108.435 97.469,108.703 97.188,109.524 97.176 C 110.612 97.161,110.613 97.153,109.646 96.387 C 108.700 95.638,108.712 95.621,110.024 95.849 C 110.769 95.978,111.508 95.874,111.666 95.618 C 112.108 94.904,111.082 94.139,109.683 94.139 C 108.382 94.139,107.871 92.707,108.937 92.049 C 109.287 91.832,109.268 91.514,108.877 91.043 C 108.466 90.548,108.459 90.354,108.854 90.354 C 109.155 90.354,109.402 90.552,109.402 90.795 M94.994 95.995 C 101.147 97.049,101.099 97.027,101.099 98.758 L 101.099 100.258 98.535 99.959 L 95.971 99.659 97.906 101.291 L 99.841 102.923 97.906 103.925 C 95.844 104.992,95.984 105.177,99.267 105.723 C 100.974 106.006,101.099 106.143,101.099 107.724 C 101.099 109.230,100.976 109.393,100.000 109.175 C 98.526 108.846,90.213 107.452,89.714 107.450 C 88.085 107.443,89.769 103.812,91.697 103.172 C 94.289 102.312,94.281 102.118,91.575 100.175 C 89.703 98.830,89.377 98.348,89.377 96.917 C 89.377 94.966,89.179 94.998,94.994 95.995 M110.773 101.533 L 112.576 102.051 110.752 101.798 C 109.163 101.578,108.964 101.658,109.211 102.421 C 109.448 103.154,109.408 103.178,108.967 102.564 C 108.677 102.161,108.462 101.282,108.489 100.611 C 108.519 99.866,108.622 99.706,108.753 100.202 C 108.872 100.649,109.780 101.248,110.773 101.533 M111.871 104.442 C 113.277 105.580,112.854 106.960,111.098 106.960 C 110.402 106.960,109.960 107.166,110.116 107.419 C 110.272 107.671,109.998 107.847,109.506 107.810 C 108.832 107.759,108.601 107.319,108.564 106.009 C 108.492 103.478,109.872 102.823,111.871 104.442 M109.157 104.519 C 108.710 105.241,109.808 106.471,110.898 106.471 C 111.939 106.471,112.627 105.581,112.021 105.018 C 111.237 104.291,109.486 103.986,109.157 104.519 M112.166 112.219 C 111.377 113.008,109.046 112.269,108.592 111.086 C 108.164 109.970,109.224 109.027,110.012 109.821 C 110.502 110.314,110.453 110.372,109.768 110.111 C 109.189 109.891,108.913 110.022,108.913 110.518 C 108.913 111.312,109.909 111.844,111.395 111.844 C 112.862 111.844,112.495 110.463,110.745 109.396 C 109.308 108.520,109.482 108.161,111.233 108.388 C 111.569 108.432,111.868 108.183,111.897 107.836 C 111.927 107.488,112.144 108.188,112.379 109.391 C 112.697 111.016,112.643 111.742,112.166 112.219 M100.528 137.241 C 93.633 137.375,87.809 137.668,87.586 137.892 C 86.984 138.495,87.065 239.160,87.668 239.726 C 88.380 240.395,263.065 240.950,269.275 240.303 C 315.522 235.486,332.110 174.986,294.837 147.074 C 283.764 138.782,277.259 137.264,252.719 137.249 C 236.942 137.239,238.711 136.673,234.432 143.101 C 227.539 153.457,225.672 155.750,223.852 156.091 C 222.920 156.266,204.251 156.245,182.366 156.045 L 142.573 155.681 139.481 151.711 C 137.780 149.528,134.918 145.493,133.122 142.746 C 131.325 139.998,129.594 137.580,129.274 137.373 C 128.604 136.938,118.441 136.892,100.528 137.241 M101.099 139.229 L 101.099 140.730 98.535 140.412 C 96.506 140.161,95.469 140.310,93.565 141.129 C 90.842 142.300,89.725 142.129,89.954 140.576 C 90.224 138.737,92.583 137.804,97.070 137.765 L 101.099 137.729 101.099 139.229 M111.764 143.346 L 111.665 148.962 110.318 148.962 C 109.577 148.962,108.837 148.746,108.674 148.481 C 108.489 148.183,108.942 148.113,109.866 148.298 C 111.721 148.669,111.823 147.870,110.012 147.155 L 108.669 146.624 110.012 146.572 C 111.460 146.516,111.917 145.548,110.501 145.536 C 110.031 145.532,109.316 145.293,108.913 145.005 C 108.328 144.587,108.407 144.532,109.307 144.730 C 110.036 144.890,110.367 144.776,110.244 144.406 C 110.139 144.091,109.815 143.834,109.524 143.834 C 109.233 143.834,108.867 143.669,108.710 143.468 C 108.553 143.266,108.570 143.209,108.746 143.341 C 108.923 143.473,109.363 143.336,109.723 143.037 C 110.205 142.637,110.379 142.638,110.379 143.042 C 110.379 143.343,110.598 143.590,110.867 143.590 C 111.756 143.590,111.373 141.708,110.423 141.406 C 109.910 141.243,109.195 140.750,108.835 140.311 C 108.266 139.616,108.349 139.622,109.479 140.356 C 110.332 140.911,110.886 141.024,111.095 140.686 C 111.603 139.864,110.913 139.194,109.557 139.194 C 108.500 139.194,108.400 139.080,108.913 138.462 C 109.248 138.059,110.048 137.729,110.691 137.729 L 111.862 137.729 111.764 143.346 M119.223 138.339 C 119.558 142.158,119.571 142.078,118.711 141.541 C 117.729 140.928,117.602 137.733,118.559 137.730 C 118.895 137.730,119.194 138.004,119.223 138.339 M119.403 148.840 C 119.239 155.580,119.294 155.143,118.687 154.536 C 118.279 154.128,118.135 151.446,118.180 145.085 C 118.187 144.157,118.825 143.185,119.478 143.109 C 119.514 143.105,119.480 145.684,119.403 148.840 M100.406 144.567 C 101.150 144.567,101.475 151.394,100.733 151.414 C 97.486 151.506,90.288 149.600,90.032 148.580 C 89.588 146.812,90.332 146.449,93.258 147.004 C 97.766 147.858,98.168 147.754,98.168 145.735 C 98.168 144.330,98.325 144.034,98.941 144.270 C 99.366 144.433,100.025 144.567,100.406 144.567 M109.380 151.418 C 109.055 151.619,108.912 151.983,109.063 152.228 C 109.214 152.472,109.135 152.991,108.889 153.381 C 108.569 153.887,108.438 153.569,108.432 152.274 C 108.426 150.816,108.577 150.517,109.198 150.755 C 109.766 150.973,109.815 151.149,109.380 151.418 M92.893 153.494 C 93.084 156.066,94.261 156.586,94.261 154.099 C 94.261 151.360,96.870 151.689,97.099 154.457 C 97.289 156.754,98.168 156.878,98.168 154.608 C 98.168 152.716,98.703 152.175,100.126 152.627 C 100.983 152.898,101.099 153.370,101.099 156.587 L 101.099 160.240 99.267 159.911 C 89.340 158.128,90.453 158.733,90.354 155.066 C 90.242 150.953,90.219 151.025,91.550 151.280 C 92.552 151.471,92.769 151.829,92.893 153.494 M111.385 155.049 C 111.637 154.893,111.844 155.234,111.844 155.806 C 111.844 156.764,111.781 156.784,111.054 156.057 C 110.107 155.110,109.221 155.309,108.986 156.522 C 108.861 157.165,109.029 157.325,109.596 157.107 C 110.027 156.942,110.379 157.044,110.379 157.333 C 110.379 157.621,110.708 157.731,111.111 157.577 C 111.615 157.383,111.844 157.607,111.844 158.292 C 111.844 159.427,110.762 160.689,109.803 160.673 C 109.448 160.667,109.688 160.254,110.336 159.756 L 111.515 158.850 110.384 158.245 C 109.402 157.719,109.293 157.743,109.557 158.429 C 109.723 158.863,109.631 159.219,109.352 159.219 C 109.074 159.219,108.916 159.713,109.001 160.317 C 109.126 161.193,109.471 161.416,110.699 161.414 C 111.547 161.413,112.135 161.584,112.006 161.793 C 111.876 162.003,111.035 162.125,110.136 162.065 L 108.502 161.955 108.502 158.140 C 108.502 156.041,108.689 154.440,108.918 154.582 C 109.147 154.723,109.490 154.587,109.680 154.280 C 109.919 153.892,110.164 153.968,110.476 154.526 C 110.724 154.969,111.133 155.204,111.385 155.049 M119.170 155.800 C 119.170 156.068,118.730 156.288,118.193 156.288 C 117.656 156.288,117.216 156.068,117.216 155.800 C 117.216 155.531,117.656 155.311,118.193 155.311 C 118.730 155.311,119.170 155.531,119.170 155.800 M95.922 161.221 C 97.176 162.207,98.053 162.236,100.321 161.366 C 100.940 161.129,101.099 161.412,101.099 162.759 C 101.099 164.226,100.901 164.507,99.597 164.887 C 98.771 165.127,98.095 165.543,98.095 165.812 C 98.095 166.081,98.771 166.497,99.597 166.737 C 101.327 167.241,101.897 169.963,100.272 169.963 C 95.954 169.963,90.436 168.299,90.159 166.912 C 89.139 161.810,92.478 158.512,95.922 161.221 M93.111 164.339 C 92.772 165.222,94.520 166.334,95.008 165.546 C 95.466 164.804,94.898 163.614,94.085 163.614 C 93.702 163.614,93.264 163.940,93.111 164.339 M111.646 166.620 C 111.870 166.982,111.779 167.051,111.392 166.811 C 111.025 166.585,110.506 166.842,110.068 167.468 C 109.300 168.565,108.425 168.838,108.425 167.981 C 108.425 167.696,108.634 167.593,108.889 167.750 C 109.144 167.908,109.591 167.591,109.883 167.047 C 110.477 165.936,111.126 165.779,111.646 166.620 M284.259 167.776 L 285.926 169.496 278.250 177.183 C 274.028 181.411,270.574 185.057,270.574 185.286 C 270.574 185.514,274.096 189.408,278.401 193.939 L 286.229 202.177 284.325 203.897 C 283.278 204.843,282.321 205.617,282.199 205.617 C 282.076 205.617,278.586 202.045,274.443 197.680 C 270.300 193.315,266.658 189.744,266.348 189.744 C 266.039 189.744,262.145 193.315,257.696 197.680 C 248.563 206.640,249.338 206.185,247.120 203.897 L 245.453 202.176 253.970 193.649 L 262.487 185.122 260.775 183.281 C 259.833 182.269,257.038 179.308,254.562 176.701 C 249.382 171.245,249.532 171.641,251.809 169.449 L 253.557 167.766 259.990 174.483 L 266.422 181.201 274.237 173.647 C 283.235 164.948,282.140 165.589,284.259 167.776 M101.099 172.650 C 101.099 173.590,100.879 174.359,100.611 174.359 C 100.342 174.359,100.122 175.115,100.122 176.040 C 100.122 176.964,100.342 177.856,100.611 178.022 C 100.879 178.188,101.099 179.082,101.099 180.008 L 101.099 181.693 95.726 178.999 L 90.354 176.304 90.354 174.428 L 90.354 172.552 95.116 171.803 C 97.735 171.391,100.153 171.029,100.488 170.997 C 100.871 170.961,101.099 171.577,101.099 172.650 M95.454 175.596 C 96.662 176.509,97.192 176.504,97.192 175.580 C 97.192 175.103,96.724 174.853,95.849 174.863 C 94.562 174.878,94.545 174.909,95.454 175.596 M94.633 181.463 C 95.440 182.028,95.948 182.089,96.663 181.707 C 97.872 181.060,99.871 181.768,100.581 183.095 C 101.057 183.984,101.345 190.476,100.909 190.476 C 100.634 190.476,92.756 189.036,91.453 188.747 C 89.808 188.383,89.797 182.619,91.440 181.468 C 92.797 180.518,93.283 180.517,94.633 181.463 M93.040 184.615 C 92.684 185.192,93.146 186.081,93.802 186.081 C 94.054 186.081,94.261 185.641,94.261 185.104 C 94.261 184.074,93.551 183.789,93.040 184.615 M97.192 185.551 C 97.192 186.151,97.507 186.569,97.960 186.569 C 98.415 186.569,98.664 186.237,98.571 185.755 C 98.333 184.529,97.192 184.361,97.192 185.551 " stroke="none" fill="#000000" fill-rule="evenodd"></path></g></svg>